<svg xmlns="http://www.w3.org/2000/svg" version="1.1" xmlns:xlink="http://www.w3.org/1999/xlink" xmlns:svgjs="http://svgjs.com/svgjs" width="1440" height="560" preserveAspectRatio="none" viewBox="0 0 1440 560">
    <g mask="url(&quot;#SvgjsMask1032&quot;)" fill="none">
        <path d="M782 288L1144 650" stroke-width="6" stroke="url(#SvgjsLinearGradient1033)" stroke-linecap="round" class="BottomRight"></path>
        <path d="M1376 216L1194 34" stroke-width="10" stroke="url(#SvgjsLinearGradient1034)" stroke-linecap="round" class="TopLeft"></path>
        <path d="M428 511L803 886" stroke-width="6" stroke="url(#SvgjsLinearGradient1033)" stroke-linecap="round" class="BottomRight"></path>
        <path d="M119 376L-61 196" stroke-width="8" stroke="url(#SvgjsLinearGradient1034)" stroke-linecap="round" class="TopLeft"></path>
        <path d="M831 81L462 -288" stroke-width="10" stroke="url(#SvgjsLinearGradient1033)" stroke-linecap="round" class="BottomRight"></path>
        <path d="M200 505L-192 113" stroke-width="10" stroke="url(#SvgjsLinearGradient1035)" stroke-linecap="round" class="BottomRight"></path>
        <path d="M245 535L665 955" stroke-width="10" stroke="url(#SvgjsLinearGradient1036)" stroke-linecap="round" class="TopLeft"></path>
        <path d="M1277 258L1433 414" stroke-width="10" stroke="url(#SvgjsLinearGradient1035)" stroke-linecap="round" class="BottomRight"></path>
        <path d="M1381 323L1567 509" stroke-width="8" stroke="url(#SvgjsLinearGradient1036)" stroke-linecap="round" class="TopLeft"></path>
        <path d="M247 239L3 -5" stroke-width="8" stroke="url(#SvgjsLinearGradient1035)" stroke-linecap="round" class="BottomRight"></path>
        <path d="M1088 11L734 -343" stroke-width="6" stroke="url(#SvgjsLinearGradient1034)" stroke-linecap="round" class="TopLeft"></path>
        <path d="M16 142L-145 -19" stroke-width="10" stroke="url(#SvgjsLinearGradient1033)" stroke-linecap="round" class="BottomRight"></path>
        <path d="M701 238L558 95" stroke-width="6" stroke="url(#SvgjsLinearGradient1034)" stroke-linecap="round" class="TopLeft"></path>
        <path d="M1238 8L1396 166" stroke-width="8" stroke="url(#SvgjsLinearGradient1034)" stroke-linecap="round" class="TopLeft"></path>
        <path d="M320 112L124 -84" stroke-width="6" stroke="url(#SvgjsLinearGradient1033)" stroke-linecap="round" class="BottomRight"></path>
        <path d="M1057 393L690 26" stroke-width="8" stroke="url(#SvgjsLinearGradient1034)" stroke-linecap="round" class="TopLeft"></path>
        <path d="M1379 172L1110 -97" stroke-width="6" stroke="url(#SvgjsLinearGradient1033)" stroke-linecap="round" class="BottomRight"></path>
        <path d="M1085 310L1341 566" stroke-width="10" stroke="url(#SvgjsLinearGradient1035)" stroke-linecap="round" class="BottomRight"></path>
        <path d="M431 358L159 86" stroke-width="10" stroke="url(#SvgjsLinearGradient1035)" stroke-linecap="round" class="BottomRight"></path>
        <path d="M142 231L489 578" stroke-width="10" stroke="url(#SvgjsLinearGradient1033)" stroke-linecap="round" class="BottomRight"></path>
        <path d="M452 432L292 272" stroke-width="8" stroke="url(#SvgjsLinearGradient1034)" stroke-linecap="round" class="TopLeft"></path>
        <path d="M1215 122L1047 -46" stroke-width="10" stroke="url(#SvgjsLinearGradient1036)" stroke-linecap="round" class="TopLeft"></path>
        <path d="M1090 495L934 339" stroke-width="6" stroke="url(#SvgjsLinearGradient1033)" stroke-linecap="round" class="BottomRight"></path>
        <path d="M1075 2L1443 370" stroke-width="10" stroke="url(#SvgjsLinearGradient1036)" stroke-linecap="round" class="TopLeft"></path>
        <path d="M483 420L300 237" stroke-width="6" stroke="url(#SvgjsLinearGradient1034)" stroke-linecap="round" class="TopLeft"></path>
        <path d="M407 165L704 462" stroke-width="8" stroke="url(#SvgjsLinearGradient1033)" stroke-linecap="round" class="BottomRight"></path>
        <path d="M1289 495L1549 755" stroke-width="8" stroke="url(#SvgjsLinearGradient1036)" stroke-linecap="round" class="TopLeft"></path>
        <path d="M550 214L388 52" stroke-width="10" stroke="url(#SvgjsLinearGradient1034)" stroke-linecap="round" class="TopLeft"></path>
        <path d="M539 295L815 571" stroke-width="8" stroke="url(#SvgjsLinearGradient1036)" stroke-linecap="round" class="TopLeft"></path>
        <path d="M1282 442L880 40" stroke-width="8" stroke="url(#SvgjsLinearGradient1033)" stroke-linecap="round" class="BottomRight"></path>
        <path d="M42 121L-286 -207" stroke-width="6" stroke="url(#SvgjsLinearGradient1036)" stroke-linecap="round" class="TopLeft"></path>
        <path d="M727 518L384 175" stroke-width="6" stroke="url(#SvgjsLinearGradient1036)" stroke-linecap="round" class="TopLeft"></path>
        <path d="M505 176L820 491" stroke-width="10" stroke="url(#SvgjsLinearGradient1033)" stroke-linecap="round" class="BottomRight"></path>
        <path d="M587 145L419 -23" stroke-width="8" stroke="url(#SvgjsLinearGradient1035)" stroke-linecap="round" class="BottomRight"></path>
        <path d="M940 297L685 42" stroke-width="6" stroke="url(#SvgjsLinearGradient1036)" stroke-linecap="round" class="TopLeft"></path>
        <path d="M1334 163L1020 -151" stroke-width="8" stroke="url(#SvgjsLinearGradient1036)" stroke-linecap="round" class="TopLeft"></path>
        <path d="M149 289L-121 19" stroke-width="10" stroke="url(#SvgjsLinearGradient1036)" stroke-linecap="round" class="TopLeft"></path>
        <path d="M827 282L600 55" stroke-width="8" stroke="url(#SvgjsLinearGradient1034)" stroke-linecap="round" class="TopLeft"></path>
        <path d="M132 442L-287 23" stroke-width="8" stroke="url(#SvgjsLinearGradient1035)" stroke-linecap="round" class="BottomRight"></path>
    </g>
    <defs>
        <mask id="SvgjsMask1032">
            <rect width="1440" height="560" fill="#ffffff"></rect>
        </mask>
        <linearGradient x1="0%" y1="0%" x2="100%" y2="100%" id="SvgjsLinearGradient1033">
            <stop stop-color="rgba(100, 81, 139, 0)" offset="0"></stop>
            <stop stop-color="rgba(100, 81, 139, 1)" offset="1"></stop>
        </linearGradient>
        <linearGradient x1="100%" y1="100%" x2="0%" y2="0%" id="SvgjsLinearGradient1034">
            <stop stop-color="rgba(100, 81, 139, 0)" offset="0"></stop>
            <stop stop-color="rgba(100, 81, 139, 1)" offset="1"></stop>
        </linearGradient>
        <linearGradient x1="0%" y1="0%" x2="100%" y2="100%" id="SvgjsLinearGradient1035">
            <stop stop-color="rgba(143, 105, 130, 0)" offset="0"></stop>
            <stop stop-color="rgba(143, 105, 130, 1)" offset="1"></stop>
        </linearGradient>
        <linearGradient x1="100%" y1="100%" x2="0%" y2="0%" id="SvgjsLinearGradient1036">
            <stop stop-color="rgba(143, 105, 130, 0)" offset="0"></stop>
            <stop stop-color="rgba(143, 105, 130, 1)" offset="1"></stop>
        </linearGradient>
    </defs>
</svg>