<svg width="700" height="42" viewBox="0 0 700 42" fill="none" xmlns="http://www.w3.org/2000/svg">
<path d="M20.4281 41.364C31.6746 41.364 40.7917 32.2469 40.7917 21.0004C40.7917 9.75383 31.6746 0.636719 20.4281 0.636719C9.18156 0.636719 0.0644531 9.75383 0.0644531 21.0004C0.0644531 32.2469 9.18156 41.364 20.4281 41.364Z" fill="white"/>
<path fill-rule="evenodd" clip-rule="evenodd" d="M20.8071 26.7017C17.8722 26.745 18.1688 24.7608 18.1688 24.7608C18.1688 24.7608 28.9271 20.921 25.9961 13.3381C24.6762 11.3882 23.1451 10.7761 20.9764 10.8206C18.8077 10.8651 16.1159 12.2435 14.3735 16.3226C13.5424 18.2699 13.2382 20.1153 13.069 21.5128C13.069 21.5128 11.1853 21.9137 10.1646 21.0266C9.14515 20.1395 8.61951 21.0266 8.61951 21.0266C8.61951 21.0266 6.86951 23.3531 8.61315 24.0633C10.3542 24.7722 13.0753 25.1031 13.0753 25.1031H13.0741C13.3248 26.3441 14.3264 29.0881 16.1731 30.1342C18.0224 31.1817 18.9973 31.1817 20.9764 31.1817C26.845 31.1817 32.2757 25.7675 32.2757 24.0633C32.2757 22.3579 30.9177 22.3579 30.2393 22.3579C30.0688 22.3579 29.8193 22.5831 29.4337 22.9319C28.2882 23.9691 25.9362 26.101 20.8071 26.7004V26.7017ZM17.6584 21.3359C17.787 16.0591 21.1037 13.753 22.253 14.9048C23.401 16.0591 22.9759 18.5422 20.8059 20.0937C18.6371 21.6451 17.6584 21.3359 17.6584 21.3359Z" fill="#020816"/>
<path d="M115 42C126.598 42 136 32.598 136 21C136 9.40202 126.598 0 115 0C103.402 0 94 9.40202 94 21C94 32.598 103.402 42 115 42Z" fill="white"/>
<path d="M103.3 32.7C100.15 29.55 98.5 25.35 98.5 21.3L114.85 37.5C110.65 37.35 106.45 35.85 103.3 32.7ZM118.6 37.05L98.95 17.4C100.6 10.05 107.2 4.5 115 4.5C120.55 4.5 125.35 7.2 128.35 11.25L126.1 13.2C123.55 9.75 119.5 7.5 115 7.5C109.15 7.5 104.2 11.25 102.25 16.5L119.5 33.75C123.85 32.25 127.15 28.5 128.2 24H121V21H131.5C131.5 28.8 125.95 35.4 118.6 37.05Z" fill="#020816"/>
<g clip-path="url(#clip0_1483_74188)">
<path d="M207.624 0.0114818C207.534 0.0202318 207.247 0.0482318 206.988 0.0692318C201.023 0.606482 195.435 3.82386 191.896 8.77111C189.94 11.4864 188.668 14.6341 188.189 17.9464C188.02 19.0996 188 19.44 188 21.0045C188 22.5681 188.02 22.9094 188.189 24.0626C189.33 31.9481 194.942 38.5736 202.554 41.0289C203.917 41.4672 205.354 41.7674 206.988 41.9476C207.625 42.0176 210.375 42.0176 211.012 41.9476C213.833 41.6361 216.221 40.9379 218.579 39.7347C218.939 39.551 219.009 39.5011 218.96 39.46C218.927 39.4355 217.388 37.3705 215.54 34.875L212.181 30.339L207.974 24.1116C205.658 20.6877 203.753 17.8886 203.737 17.8886C203.72 17.8842 203.704 20.651 203.696 24.0294C203.683 29.9444 203.679 30.1832 203.606 30.3224C203.499 30.5236 203.417 30.6059 203.244 30.696C203.113 30.7616 202.997 30.7747 202.378 30.7747H201.667L201.479 30.6549C201.362 30.5816 201.267 30.4782 201.204 30.3556L201.117 30.171L201.126 21.9399L201.138 13.7061L201.265 13.5451C201.331 13.4594 201.471 13.3482 201.569 13.2949C201.737 13.2126 201.803 13.2047 202.514 13.2047C203.351 13.2047 203.49 13.238 203.708 13.476C203.769 13.5416 206.048 16.9734 208.774 21.1069C211.501 25.2404 215.228 30.885 217.06 33.6561L220.385 38.6926L220.553 38.5815C222.044 37.6129 223.619 36.2339 224.868 34.7971C227.514 31.769 229.231 28.0418 229.812 24.0626C229.98 22.9085 230 22.5681 230 21.0045C230 19.44 229.98 19.0996 229.811 17.9464C228.67 10.06 223.058 3.43536 215.446 0.980107C214.103 0.545232 212.674 0.245107 211.073 0.0648568C210.679 0.0237318 207.966 -0.0217682 207.625 0.0114818H207.624ZM216.221 12.7121C216.319 12.7615 216.406 12.8298 216.477 12.913C216.548 12.9962 216.602 13.0927 216.636 13.1969C216.669 13.3036 216.677 15.5856 216.669 20.7289L216.657 28.1104L215.355 26.1154L214.05 24.1204V18.7549C214.05 15.2864 214.066 13.336 214.091 13.2424C214.12 13.133 214.171 13.0307 214.241 12.9417C214.311 12.8526 214.398 12.7787 214.498 12.7244C214.666 12.6386 214.727 12.6299 215.373 12.6299C215.98 12.6299 216.087 12.6386 216.221 12.7121V12.7121Z" fill="white"/>
</g>
<path d="M301 24.4409C301.861 24.4409 302.686 24.0296 303.295 23.2974C303.904 22.5653 304.246 21.5723 304.246 20.5369C304.246 19.5014 303.904 18.5084 303.295 17.7763C302.686 17.0441 301.861 16.6328 301 16.6328C300.139 16.6328 299.313 17.0441 298.705 17.7763C298.096 18.5084 297.754 19.5014 297.754 20.5369C297.754 21.5723 298.096 22.5653 298.705 23.2974C299.313 24.0296 300.139 24.4409 301 24.4409V24.4409Z" stroke="white" stroke-width="1.54167"/>
<path d="M300.999 28.5361C310.617 28.5361 318.415 24.9558 318.415 20.5376C318.415 16.1194 310.617 12.5391 300.999 12.5391C291.38 12.5391 283.582 16.1194 283.582 20.5376C283.582 24.9558 291.38 28.5361 300.999 28.5361Z" stroke="white" stroke-width="1.54167"/>
<path d="M295.242 24.5364C300.05 34.5555 306.528 40.8877 309.709 38.6786C312.89 36.4694 311.569 26.557 306.759 16.5379C301.95 6.51875 295.474 0.186585 292.292 2.3957C289.111 4.60292 290.432 14.5173 295.242 24.5364Z" stroke="white" stroke-width="1.54167"/>
<path d="M295.24 16.5384C290.43 26.5576 289.108 36.4719 292.291 38.6791C295.472 40.8883 301.949 34.5561 306.758 24.537C311.568 14.5179 312.89 4.6054 309.707 2.39628C306.526 0.185256 300.049 6.51933 295.24 16.5384Z" stroke="white" stroke-width="1.54167"/>
<g clip-path="url(#clip1_1483_74188)">
<path fill-rule="evenodd" clip-rule="evenodd" d="M387.88 1.8687C393.567 -1.6788 401.433 -0.0250461 405.416 5.55495V5.58495C406.362 6.8807 407.033 8.34819 407.391 9.90137C407.75 11.4545 407.788 13.0622 407.504 14.63C407.226 16.1263 406.642 17.5523 405.788 18.8225C407.036 21.1511 407.455 23.8206 406.979 26.4087C406.693 27.9418 406.086 29.4001 405.194 30.6912C404.303 31.9823 403.148 33.0779 401.801 33.9087L391.813 40.115C386.126 43.6625 378.259 42.0087 374.276 36.4287C373.33 35.1333 372.658 33.6659 372.3 32.1126C371.942 30.5593 371.904 28.9515 372.189 27.3837C372.464 25.8871 373.046 24.4608 373.901 23.1912C372.654 20.861 372.236 18.1901 372.714 15.6012C372.997 14.0673 373.604 12.6081 374.495 11.3167C375.387 10.0253 376.544 8.93016 377.892 8.1012L387.88 1.8687V1.8687ZM382.148 36.7325C383.671 37.2858 385.331 37.3682 386.903 36.9687C387.621 36.7797 388.305 36.4851 388.933 36.095L398.925 29.8625C399.737 29.3622 400.433 28.7016 400.969 27.9228C401.505 27.1441 401.869 26.2644 402.038 25.34C402.21 24.3974 402.187 23.4308 401.971 22.497C401.755 21.5632 401.351 20.6811 400.782 19.9025C399.857 18.5957 398.545 17.5985 397.022 17.0459C395.499 16.4933 393.84 16.4118 392.269 16.8125C391.55 16.9983 390.865 17.2931 390.239 17.6862L386.409 20.0637C386.219 20.18 386.013 20.2684 385.796 20.3262C385.326 20.4425 384.83 20.4158 384.375 20.2497C383.92 20.0836 383.528 19.7859 383.25 19.3962C383.078 19.1608 382.956 18.8944 382.89 18.6125C382.824 18.3306 382.816 18.0387 382.867 17.7537C382.918 17.4756 383.028 17.211 383.19 16.9767C383.351 16.7424 383.561 16.5435 383.805 16.3925L393.797 10.1712C393.986 10.0535 394.193 9.96497 394.41 9.9087C394.878 9.78793 395.373 9.80971 395.829 9.97115C396.284 10.1326 396.679 10.426 396.96 10.8125C397.267 11.2354 397.41 11.7507 397.366 12.2675L397.332 12.6425L397.715 12.7512C399.118 13.1673 400.439 13.814 401.621 14.6637L402.13 15.0387L402.322 14.4762C402.42 14.1777 402.5 13.8732 402.559 13.565C402.731 12.6224 402.708 11.6557 402.493 10.7219C402.277 9.78805 401.872 8.90592 401.303 8.12745C400.378 6.82035 399.066 5.82276 397.543 5.26948C396.021 4.7162 394.361 4.6339 392.79 5.0337C392.077 5.22227 391.398 5.51561 390.775 5.9037L380.772 12.1362C379.96 12.6365 379.264 13.2971 378.728 14.0758C378.191 14.8545 377.827 15.7343 377.658 16.6587C377.485 17.6005 377.506 18.5667 377.72 19.5004C377.934 20.4342 378.336 21.3167 378.903 22.0962C379.828 23.4001 381.139 24.3952 382.659 24.9476C384.179 25.5001 385.835 25.5833 387.405 25.1862C388.121 24.9987 388.805 24.7051 389.431 24.3162L393.261 21.935C393.45 21.8173 393.657 21.7287 393.873 21.6725C394.347 21.5522 394.847 21.5768 395.305 21.7431C395.764 21.9093 396.16 22.2093 396.439 22.6025C396.612 22.8368 396.734 23.1025 396.8 23.3839C396.866 23.6654 396.873 23.9568 396.822 24.2412C396.772 24.5202 396.662 24.7858 396.501 25.0209C396.339 25.256 396.129 25.4553 395.884 25.6062L385.911 31.8387C385.722 31.9557 385.515 32.0442 385.298 32.1012C384.825 32.2215 384.325 32.1969 383.866 32.0306C383.408 31.8643 383.012 31.5644 382.733 31.1712C382.426 30.7523 382.278 30.2416 382.315 29.7275L382.35 29.3525L381.967 29.2437C380.568 28.831 379.251 28.1895 378.072 27.3462L377.558 26.9712L377.371 27.5337C377.269 27.8289 377.19 28.1309 377.133 28.4375C376.961 29.3798 376.983 30.3463 377.198 31.2801C377.414 32.2139 377.817 33.0962 378.386 33.875C379.312 35.1819 380.625 36.1793 382.148 36.7325V36.7325Z" fill="white"/>
</g>
<path fill-rule="evenodd" clip-rule="evenodd" d="M498 13.1111V27.3677L497.997 27.3675V29.0398C497.997 31.0152 496.901 32.8355 495.13 33.7976C491.397 35.8243 484.918 39.3413 481.26 41.328C479.574 42.243 477.518 42.2225 475.852 41.2732L463.325 34.135C461.266 32.9617 460 30.8116 460 28.4865V13.8897C460 11.5457 461.247 9.36977 463.293 8.13946C466.687 6.09905 471.945 2.9388 475.315 0.913222C477.3 -0.279724 479.798 -0.305621 481.809 0.845611C485.617 3.02652 491.834 6.58735 495.353 8.60281C496.993 9.54197 498 11.2571 498 13.1111ZM470.689 10.3232V31.499H475.228V22.24H482.756V31.499H487.308V10.3232H482.756V18.0365H475.228V10.3232H470.689Z" fill="white"/>
<g clip-path="url(#clip2_1483_74188)">
<path fill-rule="evenodd" clip-rule="evenodd" d="M565.982 40.6093L565.852 40.4702C565.591 39.9139 565.591 39.3576 565.591 38.8013H553.21L571.716 3.75497L579.406 18.6358L581.882 16.6887L574.193 1.80795C574.062 1.5298 573.15 0 571.586 0C570.934 0 569.892 0.278146 569.11 1.80795L550.473 37.2715C550.343 37.5497 549.561 39.2185 550.343 40.6093C550.604 41.3046 551.386 42 553.08 42H568.719C567.025 42 566.243 41.3046 565.982 40.6093Z" fill="white"/>
<path fill-rule="evenodd" clip-rule="evenodd" d="M601.431 37.4105L586.444 8.6224C586.183 8.34425 585.401 6.81445 583.837 6.81445C583.186 6.81445 582.273 7.0926 581.361 8.6224L579.406 11.9601V18.6356L583.837 10.4303L598.694 38.8012H593.09C593.168 39.3729 593.077 39.9562 592.83 40.4701V40.6092C592.048 41.9999 590.354 41.9999 590.093 41.9999H598.955C599.216 41.9999 600.91 41.9999 601.692 40.6092C601.953 39.9138 602.213 38.8012 601.431 37.4105Z" fill="white"/>
<path d="M593.219 40.6099V40.4709L593.349 40.1927C593.48 39.7755 593.61 39.2192 593.48 38.802L592.958 37.2722L581.229 15.2987L579.535 11.9609H579.404L577.71 15.2987L565.85 37.2722L565.459 38.802C565.363 39.4189 565.454 40.0527 565.72 40.6099C566.111 41.3053 566.893 42.0007 568.457 42.0007H590.352C590.743 42.0007 592.437 42.0007 593.219 40.6099ZM579.404 18.6364L590.221 38.802H568.718L579.404 18.6364Z" fill="white"/>
</g>
<path d="M682.285 0L676.978 9.68604L671.672 0H654L676.978 41.9423L699.957 0H682.285Z" fill="white"/>
<path d="M682.285 0L676.978 9.68604L671.672 0H663.191L676.978 25.1648L690.765 0H682.285Z" fill="#A4A4A4"/>
<defs>
<clipPath id="clip0_1483_74188">
<rect width="42" height="42" fill="white" transform="translate(188)"/>
</clipPath>
<clipPath id="clip1_1483_74188">
<rect width="36" height="42" fill="white" transform="translate(372)"/>
</clipPath>
<clipPath id="clip2_1483_74188">
<rect width="52" height="42" fill="white" transform="translate(550)"/>
</clipPath>
</defs>
</svg>
